<?xml version="1.0" encoding="UTF-8" standalone="no"?>
<!DOCTYPE svg PUBLIC "-//W3C//DTD SVG 1.1//EN"
 "http://www.w3.org/Graphics/SVG/1.1/DTD/svg11.dtd">
<!-- Generated by graphviz version 2.40.1 (20161225.0304)
 -->
<!-- Title: dependencies Pages: 1 -->
<svg width="980pt" height="284pt"
 viewBox="0.00 0.00 980.00 284.00" xmlns="http://www.w3.org/2000/svg" xmlns:xlink="http://www.w3.org/1999/xlink">
<g id="graph0" class="graph" transform="scale(1 1) rotate(0) translate(4 280)">
<title>dependencies</title>
<polygon fill="#ffffff" stroke="transparent" points="-4,4 -4,-280 976,-280 976,4 -4,4"/>
<text text-anchor="start" x="465.0091" y="-42.4" font-family="sans-serif" font-weight="bold" font-size="14.00" fill="#000000">Legend</text>
<polygon fill="#ffffb3" stroke="transparent" points="252,-10 252,-30 272,-30 272,-10 252,-10"/>
<text text-anchor="start" x="275.629" y="-15.4" font-family="sans-serif" font-size="14.00" fill="#000000"> &#160;Declarations</text>
<polygon fill="#8dd3c7" stroke="transparent" points="365,-10 365,-30 385,-30 385,-10 365,-10"/>
<text text-anchor="start" x="388.7251" y="-15.4" font-family="sans-serif" font-size="14.00" fill="#000000"> &#160;Module</text>
<polygon fill="#80b1d3" stroke="transparent" points="451,-10 451,-30 471,-30 471,-10 451,-10"/>
<text text-anchor="start" x="474.7812" y="-15.4" font-family="sans-serif" font-size="14.00" fill="#000000"> &#160;Bootstrap</text>
<polygon fill="#fdb462" stroke="transparent" points="548,-10 548,-30 568,-30 568,-10 548,-10"/>
<text text-anchor="start" x="571.6732" y="-15.4" font-family="sans-serif" font-size="14.00" fill="#000000"> &#160;Providers</text>
<polygon fill="#fb8072" stroke="transparent" points="644,-10 644,-30 664,-30 664,-10 644,-10"/>
<text text-anchor="start" x="667.7258" y="-15.4" font-family="sans-serif" font-size="14.00" fill="#000000"> &#160;Exports</text>
<g id="clust1" class="cluster">
<title>cluster_AppModule</title>
<polygon fill="none" stroke="#000000" stroke-dasharray="1,5" points="8,-70 8,-268 964,-268 964,-70 8,-70"/>
</g>
<g id="clust2" class="cluster">
<title>cluster_AppModule_declarations</title>
<polygon fill="none" stroke="#000000" points="484,-78 484,-130 956,-130 956,-78 484,-78"/>
</g>
<g id="clust6" class="cluster">
<title>cluster_AppModule_imports</title>
<polygon fill="none" stroke="#000000" points="332,-78 332,-130 476,-130 476,-78 332,-78"/>
</g>
<g id="clust8" class="cluster">
<title>cluster_AppModule_bootstrap</title>
<polygon fill="none" stroke="#000000" points="424,-208 424,-260 548,-260 548,-208 424,-208"/>
</g>
<g id="clust9" class="cluster">
<title>cluster_AppModule_providers</title>
<polygon fill="none" stroke="#000000" points="16,-78 16,-130 324,-130 324,-78 16,-78"/>
</g>
<!-- AlbumListingComponent -->
<g id="node1" class="node">
<title>AlbumListingComponent</title>
<polygon fill="#ffffb3" stroke="#000000" points="947.8892,-122 788.1108,-122 788.1108,-86 947.8892,-86 947.8892,-122"/>
<text text-anchor="middle" x="868" y="-99.8" font-family="Times,serif" font-size="14.00" fill="#000000">AlbumListingComponent</text>
</g>
<!-- AppModule -->
<g id="node4" class="node">
<title>AppModule</title>
<polygon fill="#8dd3c7" stroke="#000000" points="527.6571,-187 524.6571,-191 503.6571,-191 500.6571,-187 444.3429,-187 444.3429,-151 527.6571,-151 527.6571,-187"/>
<text text-anchor="middle" x="486" y="-164.8" font-family="Times,serif" font-size="14.00" fill="#000000">AppModule</text>
</g>
<!-- AlbumListingComponent&#45;&gt;AppModule -->
<g id="edge1" class="edge">
<title>AlbumListingComponent&#45;&gt;AppModule</title>
<path fill="none" stroke="#000000" d="M868,-122.2843C868,-143.3211 868,-175 868,-175 868,-175 537.9734,-175 537.9734,-175"/>
<polygon fill="#000000" stroke="#000000" points="537.9734,-171.5001 527.9734,-175 537.9734,-178.5001 537.9734,-171.5001"/>
</g>
<!-- AppComponent -->
<g id="node2" class="node">
<title>AppComponent</title>
<polygon fill="#ffffb3" stroke="#000000" points="769.9399,-122 664.0601,-122 664.0601,-86 769.9399,-86 769.9399,-122"/>
<text text-anchor="middle" x="717" y="-99.8" font-family="Times,serif" font-size="14.00" fill="#000000">AppComponent</text>
</g>
<!-- AppComponent&#45;&gt;AppModule -->
<g id="edge2" class="edge">
<title>AppComponent&#45;&gt;AppModule</title>
<path fill="none" stroke="#000000" d="M717,-122.0225C717,-139.3734 717,-163 717,-163 717,-163 537.8324,-163 537.8324,-163"/>
<polygon fill="#000000" stroke="#000000" points="537.8324,-159.5001 527.8324,-163 537.8323,-166.5001 537.8324,-159.5001"/>
</g>
<!-- TrackListingComponent -->
<g id="node3" class="node">
<title>TrackListingComponent</title>
<polygon fill="#ffffb3" stroke="#000000" points="645.6442,-122 492.3558,-122 492.3558,-86 645.6442,-86 645.6442,-122"/>
<text text-anchor="middle" x="569" y="-99.8" font-family="Times,serif" font-size="14.00" fill="#000000">TrackListingComponent</text>
</g>
<!-- TrackListingComponent&#45;&gt;AppModule -->
<g id="edge3" class="edge">
<title>TrackListingComponent&#45;&gt;AppModule</title>
<path fill="none" stroke="#000000" d="M510.0032,-122.1061C510.0032,-122.1061 510.0032,-140.991 510.0032,-140.991"/>
<polygon fill="#000000" stroke="#000000" points="506.5032,-140.9909 510.0032,-150.991 513.5032,-140.991 506.5032,-140.9909"/>
</g>
<!-- AppComponent  -->
<g id="node6" class="node">
<title>AppComponent </title>
<polygon fill="#80b1d3" stroke="#000000" points="540.439,-252 431.561,-252 431.561,-216 540.439,-216 540.439,-252"/>
<text text-anchor="middle" x="486" y="-229.8" font-family="Times,serif" font-size="14.00" fill="#000000">AppComponent </text>
</g>
<!-- AppModule&#45;&gt;AppComponent  -->
<g id="edge5" class="edge">
<title>AppModule&#45;&gt;AppComponent </title>
<path fill="none" stroke="#000000" stroke-dasharray="1,5" d="M486,-187.1061C486,-187.1061 486,-205.991 486,-205.991"/>
<polygon fill="#000000" stroke="#000000" points="482.5001,-205.9909 486,-215.991 489.5001,-205.991 482.5001,-205.9909"/>
</g>
<!-- AppRoutingModule -->
<g id="node5" class="node">
<title>AppRoutingModule</title>
<polygon fill="#8dd3c7" stroke="#000000" points="468.2744,-122 465.2744,-126 444.2744,-126 441.2744,-122 339.7256,-122 339.7256,-86 468.2744,-86 468.2744,-122"/>
<text text-anchor="middle" x="404" y="-99.8" font-family="Times,serif" font-size="14.00" fill="#000000">AppRoutingModule</text>
</g>
<!-- AppRoutingModule&#45;&gt;AppModule -->
<g id="edge4" class="edge">
<title>AppRoutingModule&#45;&gt;AppModule</title>
<path fill="none" stroke="#000000" d="M456.2795,-122.1061C456.2795,-122.1061 456.2795,-140.991 456.2795,-140.991"/>
<polygon fill="#000000" stroke="#000000" points="452.7795,-140.9909 456.2795,-150.991 459.7795,-140.991 452.7795,-140.9909"/>
</g>
<!-- AlbumsService -->
<g id="node7" class="node">
<title>AlbumsService</title>
<ellipse fill="#fdb462" stroke="#000000" cx="245" cy="-104" rx="70.6432" ry="18"/>
<text text-anchor="middle" x="245" y="-99.8" font-family="Times,serif" font-size="14.00" fill="#000000">AlbumsService</text>
</g>
<!-- AlbumsService&#45;&gt;AppModule -->
<g id="edge6" class="edge">
<title>AlbumsService&#45;&gt;AppModule</title>
<path fill="none" stroke="#000000" d="M245,-122.0225C245,-139.3734 245,-163 245,-163 245,-163 434.2961,-163 434.2961,-163"/>
<polygon fill="#000000" stroke="#000000" points="434.2962,-166.5001 444.2961,-163 434.2961,-159.5001 434.2962,-166.5001"/>
</g>
<!-- TracksService -->
<g id="node8" class="node">
<title>TracksService</title>
<ellipse fill="#fdb462" stroke="#000000" cx="90" cy="-104" rx="66.0281" ry="18"/>
<text text-anchor="middle" x="90" y="-99.8" font-family="Times,serif" font-size="14.00" fill="#000000">TracksService</text>
</g>
<!-- TracksService&#45;&gt;AppModule -->
<g id="edge7" class="edge">
<title>TracksService&#45;&gt;AppModule</title>
<path fill="none" stroke="#000000" d="M90,-122.2843C90,-143.3211 90,-175 90,-175 90,-175 433.996,-175 433.996,-175"/>
<polygon fill="#000000" stroke="#000000" points="433.996,-178.5001 443.996,-175 433.9959,-171.5001 433.996,-178.5001"/>
</g>
</g>
</svg>
